<svg width="18" height="24" viewBox="0 0 18 24" fill="none" xmlns="http://www.w3.org/2000/svg">
<path fill-rule="evenodd" clip-rule="evenodd" d="M11.25 15.75C11.25 16.9875 10.2375 18 9 18C7.7625 18 6.75 16.9875 6.75 15.75C6.75 14.5125 7.7625 13.5 9 13.5C10.2375 13.5 11.25 14.5125 11.25 15.75ZM14.625 7.875H15.75C16.9875 7.875 18 8.8875 18 10.125V21.375C18 22.6125 16.9875 23.625 15.75 23.625H2.25C1.0125 23.625 0 22.6125 0 21.375V10.125C0 8.8875 1.0125 7.875 2.25 7.875H12.4875V5.625C12.4875 3.70125 10.9237 2.1375 9 2.1375C7.07625 2.1375 5.5125 3.70125 5.5125 5.625H3.375C3.375 2.52 5.895 0 9 0C12.105 0 14.625 2.52 14.625 5.625V7.875Z" fill="#00CF6C"/>
</svg>
