<svg width="18" height="24" viewBox="0 0 18 24" fill="none" xmlns="http://www.w3.org/2000/svg">
<path d="M15.75 7.875H14.625V5.625C14.625 2.52 12.105 0 9 0C5.895 0 3.375 2.52 3.375 5.625V7.875H2.25C1.0125 7.875 0 8.8875 0 10.125V21.375C0 22.6125 1.0125 23.625 2.25 23.625H15.75C16.9875 23.625 18 22.6125 18 21.375V10.125C18 8.8875 16.9875 7.875 15.75 7.875ZM9 18C7.7625 18 6.75 16.9875 6.75 15.75C6.75 14.5125 7.7625 13.5 9 13.5C10.2375 13.5 11.25 14.5125 11.25 15.75C11.25 16.9875 10.2375 18 9 18ZM12.4875 7.875H5.5125V5.625C5.5125 3.70125 7.07625 2.1375 9 2.1375C10.9238 2.1375 12.4875 3.70125 12.4875 5.625V7.875Z" fill="#EB7100"/>
</svg>
