<svg width="24" height="24" viewBox="0 0 24 24" fill="none" xmlns="http://www.w3.org/2000/svg">
<path d="M17.6842 13.0911C14.2105 13.0911 11.3684 15.5456 11.3684 18.5456C11.3684 21.5456 14.2105 24.0002 17.6842 24.0002C21.1579 24.0002 24 21.5456 24 18.5456C24 15.5456 21.1579 13.0911 17.6842 13.0911ZM20.3368 20.8365L17.0526 19.0911V15.8183H18V18.6547L20.8421 20.1274L20.3368 20.8365Z" fill="black"/>
<path fill-rule="evenodd" clip-rule="evenodd" d="M5.05263 9.81818H17.6842V12H5.05263V9.81818ZM18.9474 2.18182H20.2105C21.6 2.18182 22.7368 3.16364 22.7368 4.36364V15.2724C22.0024 14.796 21.1438 14.4546 20.2105 14.291V7.63636H2.52632V19.6364H12.6316C12.6316 19.6364 12.6316 19.6364 12.6316 19.6364C12.6316 20.4122 12.8191 21.1501 13.1571 21.8182H2.52632C1.12421 21.8182 0 20.8364 0 19.6364L0.0126316 4.36364C0.0126316 3.16364 1.12421 2.18182 2.52632 2.18182H3.78947V0H6.31579V2.18182H16.4211V0H18.9474V2.18182ZM13.8947 16.3632C13.8946 16.3633 13.8945 16.3635 13.8943 16.3636H5.05263V14.1818H13.8947V16.3632Z" fill="black"/>
</svg>
