<svg width="33" height="33" viewBox="0 0 33 33" fill="none" xmlns="http://www.w3.org/2000/svg">
<path d="M16.275 0.815674C7.58099 0.815674 0.524994 7.87167 0.524994 16.5657C0.524994 25.2597 7.58099 32.3157 16.275 32.3157C24.969 32.3157 32.025 25.2597 32.025 16.5657C32.025 7.87167 24.969 0.815674 16.275 0.815674ZM8.39999 18.9282C7.09274 18.9282 6.03749 17.8729 6.03749 16.5657C6.03749 15.2584 7.09274 14.2032 8.39999 14.2032C9.70724 14.2032 10.7625 15.2584 10.7625 16.5657C10.7625 17.8729 9.70724 18.9282 8.39999 18.9282ZM16.275 18.9282C14.9677 18.9282 13.9125 17.8729 13.9125 16.5657C13.9125 15.2584 14.9677 14.2032 16.275 14.2032C17.5822 14.2032 18.6375 15.2584 18.6375 16.5657C18.6375 17.8729 17.5822 18.9282 16.275 18.9282ZM24.15 18.9282C22.8427 18.9282 21.7875 17.8729 21.7875 16.5657C21.7875 15.2584 22.8427 14.2032 24.15 14.2032C25.4572 14.2032 26.5125 15.2584 26.5125 16.5657C26.5125 17.8729 25.4572 18.9282 24.15 18.9282Z" fill="#EB7100"/>
</svg>
